<?xml version="1.0" standalone="no"?>
<!DOCTYPE svg PUBLIC "-//W3C//DTD SVG 20010904//EN"
 "http://www.w3.org/TR/2001/REC-SVG-20010904/DTD/svg10.dtd">
<svg version="1.0" xmlns="http://www.w3.org/2000/svg"
 width="512.000000pt" height="512.000000pt" viewBox="0 0 512.000000 512.000000"
 preserveAspectRatio="xMidYMid meet">

<g transform="translate(0.000000,512.000000) scale(0.100000,-0.100000)"
fill="#000000" stroke="none">
<path d="M2194 5101 c-43 -26 -76 -99 -118 -256 -57 -214 -54 -210 -163 -220
-661 -59 -1230 -645 -1609 -1658 -126 -338 -231 -743 -236 -911 -1 -61 1 -69
28 -97 59 -62 122 -75 183 -38 27 16 36 18 42 7 5 -7 9 -15 9 -18 0 -3 5 -34
10 -70 24 -166 -42 -428 -221 -878 -38 -95 -69 -181 -69 -192 0 -15 7 -20 25
-20 17 0 58 30 132 95 114 102 178 148 265 193 104 53 236 29 485 -88 104 -49
137 -58 147 -41 3 4 -25 77 -63 162 -106 237 -173 437 -218 649 -25 121 -25
418 0 510 36 129 92 226 180 314 127 126 260 193 486 244 111 25 130 26 430
27 296 1 314 2 327 20 8 10 14 29 14 42 0 13 -54 240 -120 504 -67 265 -119
483 -118 484 2 1 226 147 498 325 458 298 540 356 540 380 0 23 -364 311 -522
414 -185 120 -285 155 -344 117z"/>
<path d="M2645 4127 c-264 -184 -479 -338 -479 -343 10 -61 260 -1017 273
-1039 16 -28 26 -32 161 -62 423 -95 807 -122 963 -67 108 37 77 113 -132 328
-64 65 -107 115 -96 111 271 -107 395 -145 471 -145 61 0 72 7 98 59 38 75 49
144 43 255 -13 231 -151 509 -415 838 -137 171 -358 398 -386 398 -11 0 -236
-149 -501 -333z m737 -463 c60 -44 78 -133 41 -196 -56 -96 -205 -93 -258 5
-13 25 -17 47 -13 86 5 54 22 81 73 113 38 24 120 20 157 -8z"/>
<path d="M4913 4275 c-225 -199 -332 -247 -473 -210 -74 19 -233 81 -320 125
-60 30 -94 37 -104 21 -3 -4 21 -67 53 -138 109 -241 180 -450 228 -673 25
-120 25 -417 0 -510 -76 -273 -283 -462 -595 -540 -166 -42 -291 -53 -556 -47
-234 5 -249 4 -267 -14 -10 -10 -19 -30 -19 -44 0 -14 54 -242 120 -506 67
-265 119 -483 118 -484 -2 -1 -226 -147 -498 -325 -459 -299 -540 -356 -540
-380 0 -23 364 -311 522 -414 110 -71 215 -124 266 -132 83 -13 132 43 177
206 81 290 71 275 182 285 104 8 269 49 370 91 534 220 987 823 1294 1723 94
276 177 624 180 752 2 68 -14 98 -71 137 -41 27 -84 28 -135 2 -22 -11 -40
-20 -41 -20 -1 0 -7 15 -12 33 -52 167 10 449 207 940 39 97 71 186 71 197 0
15 -7 20 -25 20 -17 0 -58 -30 -132 -95z"/>
<path d="M1675 2530 c-132 -16 -179 -39 -177 -89 1 -49 55 -124 187 -260 66
-68 113 -121 105 -118 -267 107 -359 136 -456 144 -86 7 -99 -3 -134 -93 -49
-125 -35 -303 36 -488 93 -240 321 -561 605 -850 97 -99 121 -118 140 -114 22
4 938 632 965 661 15 16 -243 1025 -271 1062 -18 22 -41 30 -186 60 -238 49
-402 73 -584 85 -88 5 -162 9 -165 9 -3 -1 -32 -5 -65 -9z m227 -826 c63 -33
88 -136 48 -202 -32 -52 -76 -74 -139 -69 -48 3 -58 8 -93 45 -37 40 -43 60
-38 122 9 101 123 155 222 104z"/>
</g>
</svg>
